#!OML:ASF F:\VICON\USERDATA\INSTALL\Justin_Nancy\Justin_Nancy.ASF
:FULLY-SPECIFIED
:DEGREES
82
root 0.649526 18.1625 0.108295 8.60609 -0.197765 -3.70134
lowerback 9.80242 2.49202 7.23009
upperback -0.545489 4.3766 3.59508
thorax -5.83116 1.98085 -0.907103
lowerneck -21.8642 -5.185 -8.99888
upperneck 12.7194 -5.38907 6.01723
head 7.89948 -2.41534 2.75661
rclavicle -2.56432e-014 -4.92986e-014
rhumerus -39.4902 11.6561 -92.3026
rradius 123.72
rwrist -4.83223
rhand -15.4571 29.4316
rfingers 7.12502
rthumb 10.7239 -0.274737
lclavicle -2.56432e-014 -4.92986e-014
lhumerus -63.0001 -4.15083 95.1925
lradius 103.075
lwrist 29.9135
lhand -14.624 6.52153
lfingers 7.12502
lthumb 11.5274 36.1845
rfemur 11.0586 0.699056 27.571
rtibia 17.7807
rfoot 19.1623 -2.41473
rtoes -8.68654
lfemur -44.001 4.56096 -17.6663
ltibia 72.0341
lfoot -1.26321 -4.03315
ltoes -10.0818
83
root 0.653656 18.2367 0.567614 8.54345 -0.0347489 -3.55466
lowerback 10.0667 2.49768 7.42528
upperback -1.07188 4.45298 3.21324
thorax -6.49262 1.97158 -1.45218
lowerneck -21.4016 -5.1392 -8.8145
upperneck 13.2522 -5.49635 6.27268
head 8.0138 -2.44109 2.80591
rclavicle 4.96962e-015 -4.77083e-015
rhumerus -40.706 11.565 -93.0665
rradius 123.385
rwrist -3.78938
rhand -15.433 28.4042
rfingers 7.12502
rthumb 10.7472 -1.30084
lclavicle 4.96962e-015 -4.77083e-015
lhumerus -64.4343 -4.03055 94.6878
lradius 103.501
lwrist 30.1217
lhand -15.0035 4.7665
lfingers 7.12502
lthumb 11.1614 34.4496
rfemur 12.6396 1.043 27.281
rtibia 16.4804
rfoot 22.2014 -2.98873
rtoes -3.82395
lfemur -43.5098 4.27705 -18.0543
ltibia 67.8142
lfoot -1.23987 -4.13814
ltoes -10.1597
84
root 0.661132 18.3018 1.03045 8.51013 0.133099 -3.41276
lowerback 9.06062 2.69152 7.12261
upperback -0.679057 4.5501 3.35204
thorax -5.52856 2.07544 -1.08693
lowerneck -21.4404 -5.33128 -9.27528
upperneck 13.1866 -5.65124 6.47622
head 8.03082 -2.51707 2.92642
rclavicle 7.95139e-015 1.74931e-014
rhumerus -40.3206 11.9106 -92.5194
rradius 122.77
rwrist -3.56795
rhand -15.5976 28.2314
rfingers 7.12502
rthumb 10.5883 -1.48185
lclavicle 7.95139e-015 1.74931e-014
lhumerus -64.2394 -3.84931 94.9916
lradius 103.696
lwrist 30.3028
lhand -23.3265 18.5512
lfingers 7.12502
lthumb 3.12784 48.508
rfemur 13.9691 1.38381 27.0252
rtibia 15.7115
rfoot 24.756 -2.9914
rtoes -2.97848
lfemur -42.8959 3.93192 -18.4086
ltibia 63.4539
lfoot -1.45683 -4.14837
ltoes -10.7962
85
root 0.671231 18.3558 1.49135 8.64509 0.338172 -3.16893
lowerback 8.30156 2.80975 6.92331
upperback -0.551335 4.5993 3.31871
thorax -4.97228 2.12745 -0.970431
lowerneck -21.455 -5.43179 -9.59914
upperneck 13.1566 -5.72675 6.68173
head 8.04609 -2.5486 3.0373
rclavicle -1.78906e-015 6.36111e-015
rhumerus -40.2588 12.2692 -92.3
rradius 122.194
rwrist -3.91455
rhand -15.6574 28.4817
rfingers 7.12502
rthumb 10.5306 -1.23453
lclavicle -1.78906e-015 6.36111e-015
lhumerus -64.3425 -3.73017 95.0477
lradius 104.024
lwrist 30.3993
lhand -16.1034 8.88177
lfingers 7.12502
lthumb 10.1004 38.6194
rfemur 14.9548 1.75681 26.7235
rtibia 15.4571
rfoot 27.14 -2.80473
rtoes -0.0176172
lfemur -42.4221 3.34002 -18.783
ltibia 58.971
lfoot -1.39036 -4.2299
ltoes -11.4964
86
root 0.678591 18.4037 1.9486 8.76682 0.587701 -2.95785
lowerback 7.94163 2.89297 6.78987
upperback -0.666086 4.6652 3.20864
thorax -4.88617 2.16389 -1.00075
lowerneck -21.5081 -5.53171 -9.72694
upperneck 13.4053 -5.84435 6.75526
head 8.15529 -2.60339 3.0664
rclavicle 1.78906e-014 1.74931e-014
rhumerus -40.7468 12.4908 -92.3816
rradius 121.829
rwrist -4.15997
rhand -15.9786 28.3245
rfingers 7.12502
rthumb 10.2208 -1.40719
lclavicle 1.78906e-014 1.74931e-014
lhumerus -64.7543 -3.77769 94.9537
lradius 104.357
lwrist 30.3588
lhand -24.5789 20.9652
lfingers 7.12502
lthumb 1.91824 50.9364
rfemur 15.8018 2.45418 26.6623
rtibia 15.5722
rfoot 28.5328 -3.36513
rtoes 5.38399
lfemur -41.9012 2.70244 -19.0417
ltibia 54.4516
lfoot -0.82116 -4.5628
ltoes -13.1735
87
root 0.679078 18.4413 2.40546 8.78279 0.714413 -2.98457
lowerback 7.79828 2.97065 6.7544
upperback -0.851561 4.76398 3.17837
thorax -4.99463 2.20703 -1.02022
lowerneck -21.5239 -5.65391 -9.91647
upperneck 13.838 -5.98555 6.82502
head 8.32505 -2.67454 3.10181
rclavicle 2.10712e-014 2.22639e-014
rhumerus -41.4243 12.7329 -92.5564
rradius 121.526
rwrist -4.42273
rhand -16.0773 28.2199
rfingers 7.12502
rthumb 10.1255 -1.51644
lclavicle 2.10712e-014 2.22639e-014
lhumerus -65.3045 -3.86875 94.8616
lradius 104.758
lwrist 30.4025
lhand -15.7905 8.99454
lfingers 7.12502
lthumb 10.4022 38.7172
rfemur 16.5978 3.661 27.0897
rtibia 16.1006
rfoot 28.3519 -4.56455
rtoes 7.05053
lfemur -41.2249 2.19657 -18.9514
ltibia 50.0306
lfoot 0.0833904 -4.94453
ltoes -14.7131
88
root 0.681033 18.4637 2.85573 8.72268 0.921927 -3.3697
lowerback 7.77277 2.99767 7.14609
upperback -0.993923 4.84696 3.2127
thorax -5.09806 2.23117 -1.21073
lowerneck -21.7572 -5.73748 -10.0068
upperneck 14.3603 -6.08625 6.89447
head 8.55636 -2.71712 3.12486
rclavicle 2.56432e-014 -3.33958e-014
rhumerus -41.9949 12.9087 -92.6908
rradius 121.192
rwrist -4.55118
rhand -16.0387 28.1412
rfingers 7.12502
rthumb 10.1629 -1.59331
lclavicle 2.56432e-014 -3.33958e-014
lhumerus -65.7888 -4.04157 94.7026
lradius 105.292
lwrist 30.2445
lhand -15.5482 7.57971
lfingers 7.12502
lthumb 10.636 37.2905
rfemur 17.2892 4.67785 27.9186
rtibia 17.0164
rfoot 27.379 -5.22991
rtoes 5.76833
lfemur -40.5255 1.70816 -18.4272
ltibia 45.7953
lfoot 1.35401 -5.07593
ltoes -15.1944
89
root 0.677546 18.4708 3.29229 8.65846 1.09095 -3.74789
lowerback 7.65096 3.04511 7.44186
upperback -0.88661 4.92013 3.27947
thorax -4.89346 2.26896 -1.29956
lowerneck -22.0144 -5.79316 -10.0391
upperneck 14.3098 -6.1491 7.02452
head 8.59383 -2.72921 3.16223
rclavicle -3.79679e-014 -3.81667e-014
rhumerus -41.993 13.2397 -92.7774
rradius 120.77
rwrist -4.80672
rhand -15.9075 27.8572
rfingers 7.12502
rthumb 10.2894 -1.87111
lclavicle -3.79679e-014 -3.81667e-014
lhumerus -65.7366 -4.25358 94.6058
lradius 105.763
lwrist 29.9424
lhand -15.2798 6.98887
lfingers 7.12502
lthumb 10.8948 36.6862
rfemur 17.7715 5.6644 28.7745
rtibia 18.3276
rfoot 25.9932 -5.28267
rtoes 5.04177
lfemur -39.9086 1.31774 -17.8896
ltibia 41.8236
lfoot 2.64658 -4.99608
ltoes -15.0623
90
root 0.672023 18.4744 3.73257 8.63598 1.02531 -3.91109
lowerback 7.4318 3.17402 7.41001
upperback -0.745484 5.0564 3.31701
thorax -4.61672 2.35046 -1.23775
lowerneck -22.1609 -5.88124 -10.2127
upperneck 14.2606 -6.23299 7.20158
head 8.62158 -2.7564 3.23675
rclavicle -1.11916e-013 -7.15625e-014
rhumerus -41.8935 13.599 -92.7846
rradius 120.244
rwrist -5.26106
rhand -15.1641 28.7647
rfingers 7.12502
rthumb 11.0065 -0.926714
lclavicle -1.11916e-013 -7.15625e-014
lhumerus -65.4345 -4.37462 94.6304
lradius 106.045
lwrist 29.7445
lhand -15.1726 7.14184
lfingers 7.12502
lthumb 10.9983 36.8337
rfemur 17.9902 6.67883 29.3178
rtibia 20.0897
rfoot 24.2657 -4.7732
rtoes 3.96051
lfemur -39.2665 0.99725 -17.5426
ltibia 38.1948
lfoot 3.35572 -4.58856
ltoes -15.7628
91
root 0.667977 18.4652 4.17158 8.54914 0.959158 -4.07779
lowerback 7.51185 3.26021 7.34678
upperback -0.869373 5.18551 3.34912
thorax -4.79196 2.40782 -1.19233
lowerneck -21.9241 -5.88521 -10.2232
upperneck 14.4231 -6.26856 7.2
head 8.64093 -2.77953 3.23644
rclavicle -6.7388e-014 -5.24792e-014
rhumerus -42.39 13.8188 -92.9205
rradius 119.733
rwrist -5.60619
rhand -16.6739 26.2112
rfingers 7.12502
rthumb 9.55003 -3.55238
lclavicle -6.7388e-014 -5.24792e-014
lhumerus -65.5531 -4.42212 94.6123
lradius 106.246
lwrist 29.207
lhand -14.9203 7.30443
lfingers 7.12502
lthumb 11.2416 36.9832
rfemur 18.014 7.51107 29.8058
rtibia 22.3013
rfoot 22.2985 -3.72867
rtoes 2.44377
lfemur -38.5277 0.592359 -17.1698
ltibia 34.9705
lfoot 3.62099 -3.81586
ltoes -17.5307
92
root 0.665709 18.4345 4.6094 8.48402 1.10511 -4.32373
lowerback 7.54052 3.20371 7.37648
upperback -1.01489 5.13293 3.43775
thorax -4.97171 2.37346 -1.11834
lowerneck -21.7138 -5.86821 -10.2514
upperneck 14.455 -6.27771 7.28288
head 8.62133 -2.78134 3.27126
rclavicle -5.36719e-015 2.54444e-014
rhumerus -42.9186 14.2562 -93.1091
rradius 119.226
rwrist -5.93262
rhand -18.2745 24.6116
rfingers 7.12502
rthumb 8.00539 -5.21684
lclavicle -5.36719e-015 2.54444e-014
lhumerus -65.7107 -4.37013 94.5399
lradius 106.463
lwrist 28.5405
lhand -17.0892 11.8051
lfingers 7.12502
lthumb 9.14926 41.5866
rfemur 17.7679 8.04528 30.3457
rtibia 24.9135
rfoot 20.5 -2.539
rtoes 2.92563
lfemur -37.9635 0.141163 -16.7463
ltibia 32.2513
lfoot 3.87477 -2.79818
ltoes -17.8767
93
root 0.657784 18.3977 5.05088 8.38021 1.13669 -4.51513
lowerback 7.41359 3.18899 7.19545
upperback -0.969022 5.08758 3.57159
thorax -4.88197 2.36269 -0.866318
lowerneck -21.4792 -5.82253 -10.2121
upperneck 14.0695 -6.23973 7.31808
head 8.44681 -2.76136 3.28366
rclavicle -3.1408e-014 -2.38542e-014
rhumerus -43.038 14.824 -93.2
rradius 118.515
rwrist -6.32213
rhand -17.2312 25.5091
rfingers 7.12502
rthumb 9.01227 -4.27836
lclavicle -3.1408e-014 -2.38542e-014
lhumerus -65.6821 -4.39338 94.536
lradius 106.879
lwrist 28.2688
lhand -14.0785 6.22249
lfingers 7.12502
lthumb 12.0534 35.8554
rfemur 17.3161 8.57835 30.802
rtibia 27.871
rfoot 19.2374 -0.768316
rtoes 5.44171
lfemur -37.4137 -0.122274 -16.391
ltibia 30.0693
lfoot 4.06857 -1.58442
ltoes -16.6205
94
root 0.647981 18.357 5.49215 8.25961 1.04391 -4.71089
lowerback 7.87291 3.10236 7.34858
upperback -1.21775 5.04178 3.34021
thorax -5.37444 2.30943 -1.22342
lowerneck -21.4396 -5.60308 -9.86029
upperneck 14.1017 -6.10277 7.56673
head 8.43624 -2.65251 3.334
rclavicle 2.04748e-014 2.54444e-014
rhumerus -43.2959 15.1595 -93.9707
rradius 117.62
rwrist -6.37749
rhand -16.809 25.1901
rfingers 7.12502
rthumb 9.41966 -4.57945
lclavicle 2.04748e-014 2.54444e-014
lhumerus -66.066 -4.69758 93.9695
lradius 107.443
lwrist 28.3263
lhand -15.9462 8.82742
lfingers 7.12502
lthumb 10.2521 38.5576
rfemur 16.63 9.12233 31.2293
rtibia 31.1241
rfoot 18.1567 1.0771
rtoes 6.83747
lfemur -36.8683 -0.0891022 -16.1085
ltibia 28.4616
lfoot 4.31298 -0.84902
ltoes -16.2562
95
root 0.639321 18.2981 5.92326 8.07283 1.07408 -4.59493
lowerback 7.08888 3.12159 6.56968
upperback -0.504046 4.87996 3.66708
thorax -4.27995 2.30539 -0.369437
lowerneck -22.0813 -5.5894 -10.2234
upperneck 13.7573 -5.9148 7.70813
head 8.42588 -2.55453 3.45948
rclavicle 2.28602e-014 -6.36111e-015
rhumerus -42.0862 15.7453 -93.2259
rradius 116.585
rwrist -6.50829
rhand -16.9623 24.6169
rfingers 7.12502
rthumb 9.27174 -5.15927
lclavicle 2.28602e-014 -6.36111e-015
lhumerus -64.9151 -4.60189 94.2985
lradius 107.766
lwrist 28.3572
lhand -13.6591 4.66145
lfingers 7.12502
lthumb 12.4577 34.2702
rfemur 15.827 9.32662 31.2773
rtibia 34.676
rfoot 17.0427 2.64327
rtoes 6.24787
lfemur -36.3866 -0.0673004 -16.2466
ltibia 27.4317
lfoot 4.78195 -0.776942
ltoes -15.9514
96
root 0.630653 18.2297 6.35059 7.83562 1.30407 -4.54185
lowerback 7.31605 2.89667 6.56011
upperback -0.527964 4.59251 3.43144
thorax -4.42817 2.15555 -0.59494
lowerneck -22.0938 -5.47208 -10.0795
upperneck 13.7854 -5.87677 8.09531
head 8.4437 -2.48829 3.57642
rclavicle 6.95746e-014 7.71285e-014
rhumerus -42.5005 15.5261 -93.8719
rradius 115.809
rwrist -6.5073
rhand -16.8348 25.0094
rfingers 7.12502
rthumb 9.39476 -4.76126
lclavicle 6.95746e-014 7.71285e-014
lhumerus -64.8561 -4.81398 93.8056
lradius 108.148
lwrist 28.4316
lhand -15.3022 6.319
lfingers 7.12502
lthumb 10.8733 36.0175
rfemur 14.8708 9.22595 31.3937
rtibia 38.4871
rfoot 15.937 3.94858
rtoes 5.69536
lfemur -35.9944 -0.104508 -16.3489
ltibia 27.0185
lfoot 5.12674 -1.47625
ltoes -15.9561
